<svg id="Layer_1" data-name="Layer 1" xmlns="http://www.w3.org/2000/svg" viewBox="0 0 70.18 15.12"><defs><style>.cls-1{fill:none;stroke:#3d4752;stroke-width:0.87px;}.cls-2{fill:#3d4752;}</style></defs><title>UML Sequence</title><path class="cls-1" d="M0,10.34H4.62m4.62,0h9.25m4.62,0h9.25m4.62,0h9.25m4.62,0h9.25m4.62,0h4.62m-7.45,4.41,7.45-4.41L61.88,5.93"/><path id="ae" class="cls-2" d="M9.43,2.75V2.18L13.38.43v.86L10.74,2.46l2.64,1.18V4.5"/><path id="ae-2" data-name="ae" class="cls-2" d="M14.62,2.75V2.18L18.57.43v.86L15.93,2.46l2.64,1.18V4.5"/><path id="B" class="cls-2" d="M19.54,3a1.85,1.85,0,0,1,2-2A1.88,1.88,0,0,1,23,1.56l-.64.56a1,1,0,0,0-.77-.37,1.05,1.05,0,0,0-1,1.2c0,.69.36,1.2,1.06,1.2a1,1,0,0,0,.79-.34l.58.59a1.89,1.89,0,0,1-1.38.52,1.85,1.85,0,0,1-2-2"/><path id="E" class="cls-2" d="M25.79,1.86a1,1,0,0,0-1.29,1v2h-.94V1.08h.9a4.09,4.09,0,0,0,0,.62A1.18,1.18,0,0,1,25.79,1v.86"/><path id="K" class="cls-2" d="M28.9,2.58a.83.83,0,0,0-.88-.9,1,1,0,0,0-1,.9ZM28,1c1.29,0,1.87.9,1.8,2.28H27A1,1,0,0,0,28,4.17a1.09,1.09,0,0,0,1-.48l.62.5a1.87,1.87,0,0,1-1.61.75,1.82,1.82,0,0,1-2-2,1.84,1.84,0,0,1,2-2"/><path id="M" class="cls-2" d="M32.22,1c1.08,0,1.67.54,1.67,1.58V4.83H33V4.35h0a1.3,1.3,0,0,1-1.16.57c-.79,0-1.4-.36-1.4-1.16,0-1.18,1.36-1.23,2.57-1.27.05-.55-.37-.77-.86-.78a1.49,1.49,0,0,0-1,.43l-.48-.57A2.29,2.29,0,0,1,32.22,1ZM32,4.21a.91.91,0,0,0,1-1.09c-.72,0-1.64,0-1.64.62,0,.35.3.46.66.47"/><path id="C" class="cls-2" d="M36.24,4.91c-.87,0-1.22-.48-1.22-1.33V1.83h-.66V1.08H35V0h.92V1.08h.94v.75h-.94V3.57c0,.36.09.59.49.58a1,1,0,0,0,.4-.08l0,.73a1.9,1.9,0,0,1-.62.1"/><path id="K-2" data-name="K" class="cls-2" d="M40.19,2.58a.83.83,0,0,0-.88-.9,1,1,0,0,0-1,.9ZM39.32,1c1.29,0,1.87.9,1.8,2.28H38.27a1,1,0,0,0,1.07.92,1.09,1.09,0,0,0,1-.48l.62.5a1.87,1.87,0,0,1-1.61.75,1.82,1.82,0,0,1-2-2,1.84,1.84,0,0,1,2-2"/><path id="af" class="cls-2" d="M46,2.18v.56L42.09,4.5V3.64l2.64-1.18L42.09,1.29V.43"/><path id="af-2" data-name="af" class="cls-2" d="M51.24,2.18v.56L47.29,4.5V3.64l2.64-1.18L47.29,1.29V.43"/></svg>