<?xml version="1.0" standalone="no"?>
<!DOCTYPE svg PUBLIC "-//W3C//DTD SVG 20010904//EN"
 "http://www.w3.org/TR/2001/REC-SVG-20010904/DTD/svg10.dtd">
<svg version="1.0" xmlns="http://www.w3.org/2000/svg"
 width="282.000000pt" height="200.000000pt" viewBox="0 0 282.000000 200.000000"
 preserveAspectRatio="xMidYMid meet">

<g transform="translate(0.000000,200.000000) scale(0.100000,-0.100000)"
fill="#000000" stroke="none">
<path d="M52 983 l3 -908 1358 -3 1357 -2 0 810 0 810 -501 2 -501 3 -42 95
-42 95 -817 3 -817 2 2 -907z m1659 805 c19 -45 36 -86 37 -90 2 -4 -375 -8
-837 -8 l-841 0 0 90 0 90 804 0 804 0 33 -82z m1039 -903 l0 -795 -1340 0
-1340 0 0 795 0 795 1340 0 1340 0 0 -795z"/>
<path d="M363 1800 c0 -30 1 -47 4 -37 5 21 22 22 29 2 4 -8 10 -15 16 -15 5
0 2 10 -6 22 -12 17 -13 25 -3 37 7 10 4 9 -10 -2 -21 -19 -22 -19 -26 15 -2
20 -4 11 -4 -22z"/>
<path d="M131 1793 c1 -27 4 -38 6 -26 3 15 13 23 31 25 19 2 28 10 30 26 3
19 -1 22 -32 22 l-36 0 1 -47z m59 22 c0 -9 -9 -15 -25 -15 -16 0 -25 6 -25
15 0 9 9 15 25 15 16 0 25 -6 25 -15z"/>
<path d="M220 1811 c0 -5 9 -7 21 -4 17 5 20 2 17 -17 -1 -13 -9 -26 -17 -28
-10 -3 -12 0 -8 12 4 9 2 16 -3 16 -6 0 -10 -9 -10 -20 0 -15 6 -19 30 -17 30
2 37 17 24 51 -6 17 -54 23 -54 7z"/>
<path d="M294 1805 c-13 -34 25 -70 49 -46 9 9 6 11 -13 9 -19 -2 -25 2 -25
17 0 14 6 20 22 19 12 0 20 3 17 8 -9 14 -44 9 -50 -7z"/>
<path d="M430 1811 c0 -5 9 -7 21 -4 17 5 20 2 17 -17 -1 -13 -9 -26 -17 -28
-10 -3 -12 0 -8 12 4 9 2 16 -3 16 -6 0 -10 -9 -10 -20 0 -15 6 -19 30 -17 30
2 37 17 24 51 -6 17 -54 23 -54 7z"/>
<path d="M504 1806 c-11 -28 1 -51 24 -50 12 0 21 -4 19 -10 -2 -6 -12 -10
-22 -9 -11 1 -14 -2 -8 -8 21 -21 43 2 43 47 0 40 -2 44 -25 44 -14 0 -28 -6
-31 -14z m43 -12 c8 -21 -13 -42 -28 -27 -13 13 -5 43 11 43 6 0 13 -7 17 -16z"/>
<path d="M582 1788 c2 -25 8 -34 26 -36 12 -2 22 2 22 8 0 6 -4 8 -10 5 -5 -3
-16 -3 -22 1 -9 6 -5 10 12 14 34 8 32 34 -3 38 -27 3 -28 1 -25 -30z m38 12
c0 -5 -7 -10 -15 -10 -8 0 -15 5 -15 10 0 6 7 10 15 10 8 0 15 -4 15 -10z"/>
<path d="M401 915 c-1 -47 1 -51 24 -53 19 -1 26 4 31 23 7 30 -1 45 -26 45
-10 0 -21 8 -23 18 -3 9 -5 -6 -6 -33z m39 -21 c0 -31 -23 -28 -28 4 -2 15 2
22 12 22 11 0 16 -9 16 -26z"/>
<path d="M167 903 c-11 -33 -13 -42 -3 -30 7 9 21 17 31 17 10 0 24 -8 31 -17
10 -12 8 -3 -3 30 -10 26 -22 47 -28 47 -6 0 -18 -21 -28 -47z m43 5 c0 -5 -7
-8 -15 -8 -17 0 -18 2 -9 25 5 13 8 14 15 3 5 -7 9 -16 9 -20z"/>
<path d="M250 908 c0 -39 3 -48 18 -48 13 0 14 2 3 9 -8 5 -12 19 -9 34 3 14
1 32 -3 39 -5 8 -9 -5 -9 -34z"/>
<path d="M288 940 c-5 -17 3 -80 11 -80 7 0 6 79 -2 86 -3 3 -7 0 -9 -6z"/>
<path d="M548 940 c-5 -17 3 -80 11 -80 7 0 6 79 -2 86 -3 3 -7 0 -9 -6z"/>
<path d="M320 901 c0 -17 5 -33 10 -36 6 -4 10 6 10 24 0 16 6 32 13 34 6 3 2
6 -10 6 -19 1 -23 -4 -23 -28z"/>
<path d="M373 895 c0 -22 2 -30 4 -17 2 12 2 30 0 40 -3 9 -5 -1 -4 -23z"/>
<path d="M470 908 c0 -33 12 -47 38 -45 18 1 22 7 21 37 -1 34 -1 34 -8 6 -9
-41 -31 -46 -31 -7 0 17 -4 31 -10 31 -5 0 -10 -10 -10 -22z"/>
<path d="M585 910 c-11 -33 32 -68 49 -41 4 5 -3 7 -14 4 -11 -3 -20 0 -20 6
0 6 8 11 18 11 24 0 32 8 25 26 -8 22 -51 17 -58 -6z m45 0 c0 -5 -7 -10 -15
-10 -8 0 -15 5 -15 10 0 6 7 10 15 10 8 0 15 -4 15 -10z"/>
<path d="M660 916 c0 -8 9 -18 20 -21 26 -8 26 -29 0 -22 -11 3 -18 1 -14 -4
3 -5 14 -9 25 -9 27 0 25 36 -3 45 l-23 7 25 8 25 8 -27 1 c-18 1 -28 -4 -28
-13z"/>
</g>
</svg>
